<svg xmlns="http://www.w3.org/2000/svg" viewBox="0 0 350 70">
  <title>superbox</title>
  <path fill="#333" d="M104.32 33.15a10.85 10.85 0 0 0-8-2.82c-3.92-.06-6.44 1.23-6.44 3.62s2.64 3.43 6.56 3.86c5.58.49 12.81 1.66 12.81 9.5 0 5.64-5.09 9.56-12.87 9.56-4.9 0-9.81-1.1-13.79-5.58l3.31-4.48a14.77 14.77 0 0 0 10.66 4.49c2.88 0 6.44-1.1 6.44-3.92s-2.51-3.74-7-4.17c-5.64-.49-12.32-2.45-12.32-9.07S90.61 25 96.25 25c4.66 0 8.22 1 11.65 4zM121.14 25.86v16.31c0 5.15 2.88 8.71 8.22 8.71 5 0 8.4-4 8.4-9.13V25.86h6.31V56h-5.75l-.32-4.23a12.78 12.78 0 0 1-10.42 4.9c-7.42 0-12.75-5.33-12.75-14.47V25.86h6.36zM150.81 70V25.73h5.95l.37 4.9a12.61 12.61 0 0 1 10.67-5.52c9.07 0 15.27 6.68 15.27 15.76 0 9.26-5.89 15.88-15.27 15.88-3.68 0-8.4-1.29-10.67-5.09V70h-6.32zm25.93-29.12c0-5.7-3.74-9.63-9.56-9.63s-9.5 4.23-9.5 9.63a9.42 9.42 0 0 0 9.08 9.74h.42c5.58 0 9.57-4.11 9.57-9.75zM193.91 43.33c.55 4.66 4.29 7.6 9.87 7.6 3.13 0 6.87-1.1 8.77-3.25l4.11 4c-3.13 3.49-8.34 5.15-13 5.15-9.93 0-16.31-6.31-16.31-16 0-9.2 6.44-15.76 15.88-15.76 9.75 0 16.37 6 15.21 18.27h-24.53zM212.32 38c-.43-4.84-3.8-7.3-9-7.3-4.66 0-8.4 2.45-9.38 7.3h18.38zM230.45 25.73l.43 4c2.21-3.86 5.64-4.66 8.89-4.66a11.59 11.59 0 0 1 7.48 2.58l-2.93 5.5a7.62 7.62 0 0 0-5.32-1.84c-4.35 0-8.15 2.7-8.15 8.28V56h-6.31V25.73h5.92zM257.86 13.1v17.36c2-3.62 6.93-5.4 10.61-5.4 8.71 0 15.33 5.46 15.33 15.76 0 10-6.68 15.76-15.45 15.76-4.11 0-8.09-1.53-10.48-5.4l-.38 4.82h-5.95V13.1h6.32zm.37 27.71a9.49 9.49 0 0 0 9.1 9.86h.59c5.21 0 9.56-3.74 9.56-9.87s-4.36-9.8-9.57-9.8a9.51 9.51 0 0 0-9.69 9.32v.5zM319.32 40.88c0 9-6.13 15.76-15.7 15.76S288 49.89 288 40.88c0-8.83 6.19-15.76 15.57-15.76s15.75 6.88 15.75 15.76zm-25 0c0 5.4 3.56 9.87 9.26 9.87s9.32-4.48 9.32-9.87-3.74-9.88-9.32-9.88-9.26 4.54-9.26 9.88zM341.66 25.73h7.66v.18l-10.17 14.66L350 55.77V56h-7.6L335 45l-7.42 11H320v-.22l10.85-15.2-10.21-14.66v-.19h7.6L335 36.52z"/>
  <path fill="#ffbf33" d="M35 70l35-20-35-20L0 50zm0-30l18 10-18 10-18-10z"/>
  <path fill="#1cb88f" d="M35 40l35-20L35 0 0 20zm0-30l18 10-18 10-18-10z"/>
</svg>
